<?xml version="1.0" encoding="UTF-8"?>
<svg xmlns="http://www.w3.org/2000/svg" xmlns:xlink="http://www.w3.org/1999/xlink" width="80px" height="80px" viewBox="0 0 80 80" version="1.1">
<g id="surface1">
<path style=" stroke:none;fill-rule:nonzero;fill:rgb(56.078434%,79.607844%,63.921571%);fill-opacity:1;" d="M 45.121094 8.640625 L 45.539062 8.742188 C 50.589844 9.972656 54.996094 12.5625 58.71875 16.160156 C 58.859375 16.289062 58.996094 16.417969 59.136719 16.550781 C 64.050781 21.28125 67.054688 28.367188 67.253906 35.152344 C 67.257812 35.585938 67.261719 36.015625 67.261719 36.449219 L 67.257812 36.796875 C 67.234375 44.164062 64.472656 51.15625 59.359375 56.480469 L 59.125 56.730469 C 55.488281 60.636719 50.617188 63.371094 45.441406 64.640625 L 45.121094 64.640625 L 45.226562 64.898438 C 45.902344 66.808594 45.824219 68.882812 44.960938 70.71875 C 43.910156 72.648438 42.519531 73.613281 40.503906 74.421875 C 38.625 74.933594 36.597656 74.625 34.878906 73.761719 C 33.1875 72.742188 32.066406 71.167969 31.519531 69.28125 C 31.304688 68.03125 31.320312 66.882812 31.605469 65.648438 C 31.703125 65.238281 31.703125 65.238281 31.679688 64.640625 L 31.082031 64.476562 C 29.171875 63.933594 27.382812 63.269531 25.601562 62.398438 L 25.046875 62.132812 C 22.242188 60.6875 18.460938 58.296875 16.835938 55.515625 C 16.488281 54.945312 16.238281 54.617188 15.679688 54.238281 C 14.902344 54.082031 14.117188 54.097656 13.328125 54.101562 C 10.269531 54.109375 7.476562 52.863281 5.28125 50.71875 C 4.347656 49.6875 3.605469 48.585938 2.96875 47.351562 L 2.816406 47.054688 C 2.054688 45.484375 1.828125 43.859375 1.839844 42.128906 L 1.84375 41.582031 C 1.90625 38.492188 3.085938 35.929688 5.179688 33.671875 L 5.601562 33.28125 L 5.878906 32.992188 C 6.8125 32.082031 7.847656 31.539062 9.011719 30.984375 L 9.320312 30.839844 C 9.601562 30.71875 9.601562 30.71875 10.046875 30.621094 C 10.664062 30.234375 10.707031 29.527344 10.871094 28.851562 C 10.953125 28.542969 11.035156 28.234375 11.117188 27.925781 C 11.15625 27.773438 11.199219 27.621094 11.238281 27.464844 C 13.152344 20.683594 18.5 14.824219 24.546875 11.425781 C 26.847656 10.183594 29.304688 9.269531 31.839844 8.640625 L 32.238281 8.539062 C 36.3125 7.546875 41.066406 7.585938 45.121094 8.640625 M 14.519531 8.898438 C 15.703125 10.148438 16.246094 11.5625 16.207031 13.265625 C 16.0625 14.730469 15.328125 15.835938 14.238281 16.800781 C 12.984375 17.625 11.71875 17.722656 10.238281 17.601562 C 8.976562 17.292969 8 16.667969 7.242188 15.613281 C 6.460938 14.328125 6.246094 13.054688 6.488281 11.570312 C 6.835938 10.289062 7.707031 9.210938 8.800781 8.480469 C 10.660156 7.484375 12.777344 7.871094 14.519531 8.898438 M 74.71875 45.121094 C 75.792969 45.777344 76.476562 46.964844 76.800781 48.160156 C 76.960938 49.683594 76.855469 50.875 76 52.160156 L 75.730469 52.601562 C 74.558594 53.738281 73.316406 54.128906 71.722656 54.144531 C 70.703125 54.125 69.96875 53.855469 69.121094 53.28125 L 68.679688 53.011719 C 67.570312 51.867188 67.15625 50.667969 67.148438 49.105469 C 67.171875 47.835938 67.554688 46.660156 68.480469 45.761719 C 70.375 44.316406 72.5625 43.9375 74.71875 45.121094 M 71.066406 38.503906 C 71.753906 38.804688 72.210938 39.148438 72.539062 39.832031 C 72.800781 40.683594 72.789062 41.570312 72.398438 42.378906 C 71.980469 43 71.425781 43.304688 70.71875 43.519531 C 69.871094 43.660156 69.199219 43.515625 68.480469 43.039062 C 67.894531 42.4375 67.53125 41.824219 67.515625 40.96875 C 67.574219 40.179688 67.804688 39.65625 68.320312 39.039062 C 69.207031 38.425781 70.007812 38.1875 71.066406 38.503906 "/>
<path style=" stroke:none;fill-rule:nonzero;fill:rgb(56.078434%,79.607844%,63.921571%);fill-opacity:1;" d="M 15.261719 58.191406 C 16.039062 58.875 16.441406 59.390625 16.53125 60.441406 C 16.519531 61.171875 16.300781 61.675781 15.839844 62.238281 C 15.109375 62.882812 14.394531 63.078125 13.441406 63.039062 C 12.496094 62.773438 12.070312 62.375 11.519531 61.601562 C 11.25 60.789062 11.253906 60.101562 11.570312 59.320312 L 11.839844 58.878906 L 12.058594 58.519531 C 12.863281 57.65625 14.269531 57.695312 15.261719 58.191406 M 77.121094 40.800781 C 77.519531 41.058594 77.519531 41.058594 77.761719 41.441406 C 77.863281 42.039062 77.800781 42.320312 77.519531 42.859375 C 77.035156 43.273438 76.765625 43.320312 76.144531 43.277344 C 75.839844 43.199219 75.839844 43.199219 75.441406 42.859375 C 75.160156 42.320312 75.097656 42.039062 75.199219 41.441406 C 75.671875 40.691406 76.304688 40.636719 77.121094 40.800781 "/>
</g>
</svg>
