<?xml version="1.0" encoding="UTF-8"?>
<svg version="1.1" xmlns="http://www.w3.org/2000/svg" width="1440" height="724">
<path d="M0 0 C475.2 0 950.4 0 1440 0 C1440 238.92 1440 477.84 1440 724 C964.8 724 489.6 724 0 724 C0 485.08 0 246.16 0 0 Z " fill="#FEFEFE" transform="translate(0,0)"/>
<path d="M0 0 C228.03 0 456.06 0 691 0 C691 238.92 691 477.84 691 724 C676.81 724 662.62 724 648 724 C647.67 723.34 647.34 722.68 647 722 C646.40263031 721.96685699 645.80526062 721.93371399 645.18978882 721.89956665 C594.66902451 719.09395354 594.66902451 719.09395354 575.75 717.875 C574.53489746 717.79975098 573.31979492 717.72450195 572.06787109 717.64697266 C570.98844238 717.57526855 569.90901367 717.50356445 568.796875 717.4296875 C567.88260742 717.37022949 566.96833984 717.31077148 566.02636719 717.24951172 C564 717 564 717 563 716 C560.97453503 715.7946002 558.94265972 715.65189125 556.91015625 715.53515625 C555.65009766 715.45716797 554.39003906 715.37917969 553.09179688 715.29882812 C550.44093264 715.14187118 547.78984389 714.9896501 545.13867188 714.83789062 C538.79222955 714.44224318 532.69841884 713.89243262 526.4909668 712.51049805 C521.50152 711.4879622 516.42924609 710.97684218 511.375 710.375 C510.27542969 710.2409375 509.17585938 710.106875 508.04296875 709.96875 C505.36237342 709.64241665 502.68140902 709.31956606 500 709 C500 708.34 500 707.68 500 707 C499.27039062 706.95101562 498.54078125 706.90203125 497.7890625 706.8515625 C495.51207294 706.6885188 493.23610401 706.51098615 490.9609375 706.32421875 C488.4055169 706.11504724 485.84809914 705.92846089 483.2890625 705.76953125 C467.23991087 704.55951572 428.53438548 700.53438548 417 689 C415.13685042 688.50262775 415.13685042 688.50262775 413 688.1875 C408.40309167 687.25340823 404.70161076 685.49215907 400.57421875 683.30859375 C396.50382354 681.23942471 392.26361355 679.62380176 388 678 C388 677.34 388 676.68 388 676 C387.34 675.938125 386.68 675.87625 386 675.8125 C381.8783325 674.69621505 378.34249498 672.66238434 375 670 C375 669.34 375 668.68 375 668 C374.29875 667.938125 373.5975 667.87625 372.875 667.8125 C367.4525953 666.28008128 363.88831058 661.88831058 360 658 C358.69102263 656.87090324 357.37811944 655.7463504 356.0625 654.625 C351.51968836 650.66373567 347.86649491 646.69016452 344.9375 641.375 C343.2723633 638.07111348 343.2723633 638.07111348 341.1328125 636.3125 C338.18671396 633.11819536 336.69507208 629.56683796 334.9375 625.625 C334.25971538 624.13774689 333.58134024 622.65076273 332.90234375 621.1640625 C332.58064209 620.45241943 332.25894043 619.74077637 331.92749023 619.00756836 C331.10606929 617.22958878 330.22881572 615.47763858 329.34375 613.73046875 C328.18786127 611.38172974 327.31948083 609.18412623 326.5625 606.6875 C325.57491986 603.61218566 324.46719636 600.68773902 323.125 597.75 C321.41150232 593.97100705 319.7971593 590.16291622 318.25 586.3125 C317.82203125 585.25675781 317.3940625 584.20101562 316.953125 583.11328125 C315.96933171 579.89982528 315.81978868 577.33891525 316 574 C315.34 574 314.68 574 314 574 C313.32739649 572.23141309 312.66211605 570.46003984 312 568.6875 C311.62875 567.70136719 311.2575 566.71523438 310.875 565.69921875 C310 563 310 563 310 560 C309.34 560 308.68 560 308 560 C307.46375 558.88625 306.9275 557.7725 306.375 556.625 C304.25780488 552.37548694 301.85224924 548.33992881 299.3671875 544.296875 C298.14009882 542.23536603 297.04054373 540.16036698 296 538 C295.34 538 294.68 538 294 538 C293.525625 537.175 293.05125 536.35 292.5625 535.5 C289.86157971 531.1599716 285.7038189 528.68363118 281.55859375 525.83203125 C279 524 279 524 277.56982422 522.50073242 C275.89064658 520.89545949 274.43220496 520.11016266 272.32421875 519.15625 C267.8485104 517.0028335 263.87019461 514.35009363 259.8125 511.5 C259.12736328 511.02691406 258.44222656 510.55382812 257.73632812 510.06640625 C246.94989454 502.57092497 246.94989454 502.57092497 244 499 C244 498.01 244 497.02 244 496 C243.34 496 242.68 496 242 496 C233.38931669 488.25482352 225.09779407 474.01858674 223.69140625 462.46484375 C223.6875 460.25 223.6875 460.25 224 457 C223.34 457 222.68 457 222 457 C221.5164865 454.52161318 221.03812799 452.04240222 220.5625 449.5625 C220.42779297 448.87478516 220.29308594 448.18707031 220.15429688 447.47851562 C218.34434675 437.98731375 217.84015265 428.71581889 217.75390625 419.05859375 C217.72092133 416.50846071 217.68771059 413.95833058 217.65429688 411.40820312 C217.60735353 407.44671963 217.56297949 403.48524367 217.52319336 399.52368164 C217.32109937 380.28602838 216.92182969 361.05163907 214 342 C213.34 342 212.68 342 212 342 C211.75765625 341.27554687 211.5153125 340.55109375 211.265625 339.8046875 C209.37695983 334.35661488 207.52749648 329.62983913 204 325 C203.34 324.0925 202.68 323.185 202 322.25 C200.06788252 320.07636784 198.67685421 319.0516213 196 318 C196 317.34 196 316.68 196 316 C195.42894531 315.85304688 194.85789062 315.70609375 194.26953125 315.5546875 C189.14665497 314.13754843 184.5204428 312.35302823 179.75 310 C173.9037772 307.20186724 168.25536831 305.72150087 161.8984375 304.54296875 C159 304 159 304 156 303 C156 302.34 156 301.68 156 301 C155.32195312 300.96261719 154.64390625 300.92523438 153.9453125 300.88671875 C147.26933186 300.41514671 141.32291553 299.18078865 135 297 C135 296.34 135 295.68 135 295 C133.845 294.9175 132.69 294.835 131.5 294.75 C124.18428147 293.94875464 117.09144786 291.9067667 110 290 C108.91976562 289.71382813 107.83953125 289.42765625 106.7265625 289.1328125 C101.57143595 287.56574049 96.54400204 285.70360472 91.5 283.8125 C90.44296875 283.41683838 89.3859375 283.02117676 88.296875 282.61352539 C79.99125885 279.46283549 71.95010362 275.96231126 64 272 C64 271.34 64 270.68 64 270 C62.35 269.67 60.7 269.34 59 269 C59 268.34 59 267.68 59 267 C58.26523437 266.88914062 57.53046875 266.77828125 56.7734375 266.6640625 C49.81230218 264.99731179 44.31458421 259.67821084 39.60546875 254.515625 C37.85582855 252.86389654 36.14180047 252.06661663 34 251 C32.73921302 249.54524579 31.48192665 248.0859825 30.28515625 246.578125 C27.69906896 243.40250413 24.71213926 240.61843673 21.625 237.9375 C17.92963806 233.80221401 12 226.76340074 12 221 C11.34 221 10.68 221 10 221 C8.515 216.545 8.515 216.545 7 212 C6.34 212 5.68 212 5 212 C4.15399724 209.9635505 3.3237175 207.92056513 2.5 205.875 C2.0359375 204.73804688 1.571875 203.60109375 1.09375 202.4296875 C0.01684959 199.0528355 -0.21360807 196.51385272 0 193 C-0.66 193 -1.32 193 -2 193 C-2.98508778 189.14732214 -3.96200161 185.29261606 -4.9375 181.4375 C-5.35418945 179.80844727 -5.35418945 179.80844727 -5.77929688 178.14648438 C-8.3505579 167.95437741 -9.23515914 158.30161111 -9.60546875 147.83007812 C-9.64285156 146.88197266 -9.68023438 145.93386719 -9.71875 144.95703125 C-9.76418945 143.67276245 -9.76418945 143.67276245 -9.81054688 142.36254883 C-9.92503131 140.05560314 -9.92503131 140.05560314 -10.50276184 138.10163879 C-11.35539724 134.49786946 -11.16267241 130.80277285 -11.16796875 127.1171875 C-11.17211288 126.23823822 -11.17625702 125.35928894 -11.18052673 124.45370483 C-11.19022166 121.59409432 -11.19018123 118.73462446 -11.1875 115.875 C-11.18756042 114.90381226 -11.18762085 113.93262451 -11.18768311 112.93200684 C-11.17048133 93.58041126 -10.23872355 74.51392527 -7.4296875 55.34765625 C-6.97582214 51.81163247 -6.75123801 48.30959882 -6.5625 44.75 C-6.12606814 37.29948471 -4.98753619 30.04390411 -3.76171875 22.6875 C-2.83584528 17.11155644 -2.12467461 11.51491791 -1.4296875 5.90625 C-1 3 -1 3 0 0 Z " fill="#E9F6DE" transform="translate(749,0)"/>
</svg>
