<?xml version="1.0" encoding="UTF-8"?>
<svg version="1.1" xmlns="http://www.w3.org/2000/svg" width="389" height="142">
<path d="M0 0 C2.3125 0.1875 2.3125 0.1875 5 1 C9.84054698 6.70493036 9.09520284 15.16075604 9.28979492 22.27270508 C9.6654151 35.39788573 10.08568244 48.49717722 19 59 C31.50041894 69.09246555 47.67335361 68.53508843 62.9375 67.375 C64.12174561 67.28943848 65.30599121 67.20387695 66.52612305 67.11572266 C77.17792694 66.25019826 87.63412075 64.59297 98.13842773 62.67724609 C103.83809915 61.64206671 109.20120439 60.67451369 115 61 C115 65 115 65 113.70703125 66.30859375 C92.30161124 79.06357598 65.24247223 82.92958237 40.75 84.703125 C39.91062393 84.76446121 39.07124786 84.82579742 38.20643616 84.88899231 C33.97915151 85.1943416 29.75191061 85.48088881 25.52124023 85.73510742 C4.16264861 87.10973942 -19.62846283 90.66774176 -35 107 C-35.66 107 -36.32 107 -37 107 C-38.12193441 91.72922608 -32.53530711 79.11690968 -24.12109375 66.73828125 C-23.59902344 65.96838867 -23.07695312 65.19849609 -22.5390625 64.40527344 C-21.50566871 62.89361996 -20.46085604 61.38968005 -19.40234375 59.89550781 C-11.52953175 48.49120658 -8.78256914 36.51153026 -6.375 23.125 C-5.94647457 20.76956113 -5.51390722 18.41514798 -5.07046509 16.06246948 C-4.79759174 14.61274227 -4.53314758 13.16139192 -4.27890015 11.70828247 C-3.46888842 7.37919125 -2.1387928 3.84474358 0 0 Z " fill="#447C57" transform="translate(37,35)"/>
<path d="M0 0 C-0.79397172 14.40100438 -5.14703312 25.34685003 -13.5625 37.0625 C-23.15244478 50.58136489 -25.5571264 65.68502953 -28.2890625 81.70703125 C-28.89389851 84.50855188 -29.55771388 86.55304449 -31 89 C-32.65 89 -34.3 89 -36 89 C-39.43942058 83.5115629 -39.4245903 78.76488836 -39.5 72.5 C-39.73286909 55.4739879 -39.73286909 55.4739879 -47.125 40.6171875 C-57.62905893 31.55743667 -70.96961911 32.35491077 -84 33 C-95.26051092 33.93766036 -106.47019772 35.41944615 -117.55566406 37.60742188 C-121.08347146 38.17401339 -124.43469563 38.13453979 -128 38 C-128 37.01 -128 36.02 -128 35 C-123.40418485 30.97366629 -117.49292513 28.77492505 -111.75 26.9375 C-110.59371094 26.56189941 -110.59371094 26.56189941 -109.4140625 26.17871094 C-91.55182293 20.58599204 -73.01265037 18.34142058 -54.375 17.5625 C-35.62022692 16.74042534 -14.77570142 0 0 0 Z " fill="#0999A7" transform="translate(194,0)"/>
<path d="M0 0 C-0.6759932 5.15335072 -2.44905322 6.87378542 -6.33984375 10.09375 C-11.60838456 13.86915075 -17.29321793 16.94279532 -23 20 C-23.62390625 20.38285156 -24.2478125 20.76570313 -24.890625 21.16015625 C-28.30524963 22.51968272 -31.87126769 22.76790067 -35.5 23.125 C-36.33297607 23.2077417 -37.16595215 23.2904834 -38.02416992 23.37573242 C-51.98460029 24.64509965 -66.50640666 25.49786445 -80 21 C-80.66 20.34 -81.32 19.68 -82 19 C-81.38294189 18.99589111 -80.76588379 18.99178223 -80.13012695 18.98754883 C-57.39387544 18.72490846 -37.3460161 14.31714108 -16.6328125 5.0625 C-15.91005127 4.74007324 -15.18729004 4.41764648 -14.44262695 4.08544922 C-13.06118869 3.46257494 -11.68434412 2.82937016 -10.31323242 2.18408203 C-6.72753264 0.54312927 -3.95663625 -0.3782635 0 0 Z " fill="#96B58F" transform="translate(146,78)"/>
<path d="M0 0 C-2.95974477 7.26482806 -10.36760137 12.31144013 -17 16 C-25.88221334 19.25388014 -34.68929383 21.13807994 -44.1484375 21.09765625 C-45.13452499 21.09553383 -45.13452499 21.09553383 -46.14053345 21.09336853 C-48.21873731 21.08781762 -50.29682927 21.07527465 -52.375 21.0625 C-53.79296718 21.05747864 -55.21093607 21.05291685 -56.62890625 21.04882812 C-60.08597322 21.03786437 -63.54297567 21.02063421 -67 21 C-67.33 20.34 -67.66 19.68 -68 19 C-66.906875 18.87625 -65.81375 18.7525 -64.6875 18.625 C-45.90545928 16.22746827 -28.26425925 10.10438995 -11.33032227 1.70654297 C-4.35195871 -1.66577979 -4.35195871 -1.66577979 0 0 Z " fill="#96B58F" transform="translate(127,74)"/>
<path d="M0 0 C7.29637886 -0.22003555 14.30356013 0.6318365 21.17578125 3.21484375 C21.67078125 4.20484375 21.67078125 4.20484375 22.17578125 5.21484375 C20.88607422 5.18003906 20.88607422 5.18003906 19.5703125 5.14453125 C0.53391116 4.85389917 -16.42375064 9.26984705 -33.59179688 17.21704102 C-38.17617683 19.29536845 -41.66731183 20.79065602 -46.82421875 20.21484375 C-44.8095708 14.10826835 -40.96990958 11.74910038 -35.82421875 8.21484375 C-35.06496094 7.65023437 -34.30570313 7.085625 -33.5234375 6.50390625 C-23.53599027 -0.02696036 -11.51489455 0.64690419 0 0 Z " fill="#37672A" transform="translate(117.82421875,32.78515625)"/>
<path d="M0 0 C0.66 0 1.32 0 2 0 C4.55123425 4.7963204 5.61302269 8.41984839 4.76953125 13.8515625 C3.3605579 17.78524445 0.51108442 19.91194165 -3 22 C-4.98867713 22.69971973 -6.98608051 23.37664397 -9 24 C-9.33 24.99 -9.66 25.98 -10 27 C-11 24 -11 24 -11 21 C-11.66 21.33 -12.32 21.66 -13 22 C-13.37125 21.5875 -13.7425 21.175 -14.125 20.75 C-16.08030691 18.81642884 -16.08030691 18.81642884 -19.0625 17.0625 C-23.18545994 14.16765579 -23.18545994 14.16765579 -24 11 C-23.67567568 4.83783784 -23.67567568 4.83783784 -21.4375 2.0625 C-20.7259375 1.5365625 -20.7259375 1.5365625 -20 1 C-19.38125 2.175625 -19.38125 2.175625 -18.75 3.375 C-17.25065353 6.09431808 -17.25065353 6.09431808 -14.875 7.0625 C-13 8 -13 8 -12.25 10.125 C-12.12625 11.053125 -12.12625 11.053125 -12 12 C-11.34 12 -10.68 12 -10 12 C-9.773125 11.401875 -9.54625 10.80375 -9.3125 10.1875 C-7.64390958 7.40651597 -5.8716168 6.4358084 -3 5 C-2.34 5 -1.68 5 -1 5 C-0.67 3.35 -0.34 1.7 0 0 Z " fill="#447C57" transform="translate(50,7)"/>
<path d="M0 0 C-0.33 0.66 -0.66 1.32 -1 2 C-3.95921737 2.64106249 -6.89194667 3.18411837 -9.875 3.6875 C-23.49557824 6.19309713 -36.35505902 10.81888158 -48.67578125 17.15234375 C-51.54406839 18.19842494 -53.97127603 18.14422495 -57 18 C-52.7831869 9.5663738 -45.05787654 5.2193164 -36.515625 2.08984375 C-24.72119795 -1.33691546 -12.15155605 -0.26531782 0 0 Z " fill="#37672A" transform="translate(144,39)"/>
<path d="M0 0 C2.875 1.3125 2.875 1.3125 5 3 C5.33 3.99 5.66 4.98 6 6 C2.04 5.67 -1.92 5.34 -6 5 C-6.33 6.65 -6.66 8.3 -7 10 C-5.87465895 11.35618499 -5.87465895 11.35618499 -2.9375 11.0625 C-1.968125 11.041875 -0.99875 11.02125 0 11 C-2.97 10.505 -2.97 10.505 -6 10 C-6 9.01 -6 8.02 -6 7 C-1.71 7 2.58 7 7 7 C7 9.64 7 12.28 7 15 C-6.93600369 16.75631827 -6.93600369 16.75631827 -10.875 14.5 C-13 12 -13 12 -13.625 8.5 C-12.9221963 4.5642993 -12.12558222 3.39015111 -9 1 C-5.93570224 -0.53214888 -3.3834358 -0.22938548 0 0 Z " fill="#262626" transform="translate(335,39)"/>
<path d="M0 0 C2.125 1.1875 2.125 1.1875 4.125 4.1875 C4.5 7.125 4.5 7.125 4.125 10.1875 C2.2579009 12.49025556 0.76852259 13.86573871 -1.875 15.1875 C-7.25189567 15.73680958 -11.51579868 15.72935108 -15.875 12.1875 C-17.29541821 9.34666359 -17.18952272 7.33272722 -16.875 4.1875 C-12.26214538 -1.50168737 -6.79531658 -1.92041556 0 0 Z M-11.875 5.1875 C-11.545 6.8375 -11.215 8.4875 -10.875 10.1875 C-5.59300407 11.38738045 -5.59300407 11.38738045 -0.875 9.1875 C-1.205 7.5375 -1.535 5.8875 -1.875 4.1875 C-7.15699593 2.98761955 -7.15699593 2.98761955 -11.875 5.1875 Z " fill="#252525" transform="translate(315.875,39.8125)"/>
<path d="M0 0 C3.58552881 1.63687185 4.79315055 2.68972583 7 6 C6.80242198 9.16124829 6.55887766 11.26329763 4.625 13.8125 C0.8665445 16.55906363 -3.53830312 16.57976852 -8 16 C-11.5 14.5 -11.5 14.5 -14 12 C-14.86928736 9.13370115 -14.86928736 6.86629885 -14 4 C-9.60424499 -0.39575501 -5.87954508 -0.65328279 0 0 Z M-9 6 C-8.62095792 9.29075996 -8.62095792 9.29075996 -7 12 C-2.73919411 12.44979055 -2.73919411 12.44979055 0.875 10.5 C1.24625 10.005 1.6175 9.51 2 9 C0.77992056 6.3094472 0.77992056 6.3094472 -1 4 C-4.72224599 3.70613847 -5.77786243 3.85190829 -9 6 Z " fill="#262626" transform="translate(275,39)"/>
<path d="M0 0 C1.65 0 3.3 0 5 0 C5.33 0.99 5.66 1.98 6 3 C6.515625 2.505 7.03125 2.01 7.5625 1.5 C10.80680017 -0.49649241 13.26217334 -0.21564385 17 0 C15.35 1.65 13.7 3.3 12 5 C13.00445663 7.24071094 13.87754985 8.87754985 15.625 10.625 C16.07875 11.07875 16.5325 11.5325 17 12 C17 12.66 17 13.32 17 14 C13.06225823 14.36630156 11.43460229 14.30233203 8.125 12 C7.42375 11.34 6.7225 10.68 6 10 C5.67 11.32 5.34 12.64 5 14 C3.35 14 1.7 14 0 14 C0 9.38 0 4.76 0 0 Z " fill="#262626" transform="translate(242,40)"/>
<path d="M0 0 C1.65 0 3.3 0 5 0 C5.33 0.99 5.66 1.98 6 3 C6.515625 2.505 7.03125 2.01 7.5625 1.5 C10.80680017 -0.49649241 13.26217334 -0.21564385 17 0 C15.35 1.65 13.7 3.3 12 5 C13.49836105 8.11198065 15.19933758 11.0534615 17 14 C13.06225823 14.36630156 11.43460229 14.30233203 8.125 12 C7.42375 11.34 6.7225 10.68 6 10 C5.67 11.32 5.34 12.64 5 14 C3.35 14 1.7 14 0 14 C0 9.38 0 4.76 0 0 Z " fill="#262626" transform="translate(352,40)"/>
<path d="M0 0 C4.95 0 9.9 0 15 0 C15 0.99 15 1.98 15 3 C11.7 3 8.4 3 5 3 C5 3.66 5 4.32 5 5 C8.3 5 11.6 5 15 5 C15 5.99 15 6.98 15 8 C11.7 8 8.4 8 5 8 C5 8.99 5 9.98 5 11 C8.63 11 12.26 11 16 11 C16 11.99 16 12.98 16 14 C10.72 14 5.44 14 0 14 C0 9.38 0 4.76 0 0 Z " fill="#252525" transform="translate(225,40)"/>
<path d="M0 0 C0.93328125 0.07476562 1.8665625 0.14953125 2.828125 0.2265625 C3.83296704 2.18241575 4.83186305 4.14132487 5.828125 6.1015625 C6.385 7.19210938 6.941875 8.28265625 7.515625 9.40625 C8.828125 12.2265625 8.828125 12.2265625 8.828125 14.2265625 C7.178125 14.2265625 5.528125 14.2265625 3.828125 14.2265625 C3.828125 13.5665625 3.828125 12.9065625 3.828125 12.2265625 C2.52875 12.3709375 1.229375 12.5153125 -0.109375 12.6640625 C-0.84027344 12.74527344 -1.57117188 12.82648437 -2.32421875 12.91015625 C-4.18327729 13.04542864 -4.18327729 13.04542864 -5.171875 14.2265625 C-6.83804615 14.26720082 -8.50575595 14.2692835 -10.171875 14.2265625 C-9.15558774 10.53097247 -7.77253774 7.19584693 -5.921875 3.8515625 C-5.54546875 3.16320313 -5.1690625 2.47484375 -4.78125 1.765625 C-3.171875 0.2265625 -3.171875 0.2265625 0 0 Z M-1.171875 4.2265625 C-1.501875 5.5465625 -1.831875 6.8665625 -2.171875 8.2265625 C-1.181875 8.2265625 -0.191875 8.2265625 0.828125 8.2265625 C0.168125 6.9065625 -0.491875 5.5865625 -1.171875 4.2265625 Z " fill="#262626" transform="translate(380.171875,39.7734375)"/>
<path d="M0 0 C0.5775 0.78375 1.155 1.5675 1.75 2.375 C3.7423059 5.04294902 3.7423059 5.04294902 6.125 6.0625 C8.63176158 7.31588079 9.01480371 8.39818616 10 11 C9.9765625 13.578125 9.9765625 13.578125 9.625 16.25 C9.51414062 17.14203125 9.40328125 18.0340625 9.2890625 18.953125 C9.14597656 19.96632813 9.14597656 19.96632813 9 21 C-1.41309824 14.64735516 -1.41309824 14.64735516 -3 10 C-2.78117292 5.76934307 -2.36113721 3.54170582 0 0 Z " fill="#86BC41" transform="translate(29,8)"/>
<path d="M0 0 C-1.35467177 4.74135119 -3.94971385 7.37409927 -8 10 C-11.15694633 11.39226049 -14.38143835 12.39861148 -17.6875 13.375 C-18.54150391 13.64699219 -19.39550781 13.91898438 -20.27539062 14.19921875 C-26.5945111 16.13516297 -26.5945111 16.13516297 -30 15 C-29.46632813 14.69296143 -28.93265625 14.38592285 -28.3828125 14.06958008 C-25.92099953 12.65206774 -23.46049586 11.23229724 -21 9.8125 C-20.16082031 9.32974609 -19.32164063 8.84699219 -18.45703125 8.34960938 C-17.62558594 7.86943359 -16.79414062 7.38925781 -15.9375 6.89453125 C-15.10992187 6.41709473 -14.28234375 5.9396582 -13.4296875 5.44775391 C-10.44411372 3.66876953 -7.55776505 1.75638567 -4.69140625 -0.20825195 C-3 -1 -3 -1 0 0 Z " fill="#96B58F" transform="translate(106,73)"/>
<path d="M0 0 C4.88764045 4.56179775 4.88764045 4.56179775 6 8 C5.45652174 13.54347826 5.45652174 13.54347826 4 15 C0.5625 15.25 0.5625 15.25 -3 15 C-5.2201757 11.66973646 -5.61460205 10.86321287 -5 7 C-3.5169152 4.51441188 -1.81617723 2.2507625 0 0 Z " fill="#119DAA" transform="translate(160,93)"/>
<path d="M0 0 C-1.37671875 0.77923828 -1.37671875 0.77923828 -2.78125 1.57421875 C-4.02102103 2.27831544 -5.26059121 2.98276585 -6.5 3.6875 C-7.1391333 4.05037109 -7.7782666 4.41324219 -8.43676758 4.78710938 C-11.91544224 6.77265628 -15.32954241 8.81386251 -18.6875 11 C-22 13 -22 13 -25 13 C-25 10.8125 -25 10.8125 -24 8 C-18.5938647 2.92795171 -7.13813248 -2.37937749 0 0 Z " fill="#38672A" transform="translate(130,45)"/>
<path d="M0 0 C1.65 0 3.3 0 5 0 C5 3.63 5 7.26 5 11 C7.64 11 10.28 11 13 11 C13 11.99 13 12.98 13 14 C8.71 14 4.42 14 0 14 C0 9.38 0 4.76 0 0 Z " fill="#272727" transform="translate(284,40)"/>
<path d="M0 0 C1.65 0 3.3 0 5 0 C5 4.62 5 9.24 5 14 C3.35 14 1.7 14 0 14 C0 9.38 0 4.76 0 0 Z " fill="#1F1F1F" transform="translate(344,40)"/>
<path d="M0 0 C0.02688151 1.64574566 0.04634123 3.29161413 0.0625 4.9375 C0.07410156 5.85402344 0.08570313 6.77054687 0.09765625 7.71484375 C0 10 0 10 -1 11 C-2.99958364 11.04080783 -5.00045254 11.04254356 -7 11 C-7.33 8.03 -7.66 5.06 -8 2 C-4.77208445 -0.1519437 -3.71599191 -0.20086443 0 0 Z M-6 3 C-6 3.99 -6 4.98 -6 6 C-4.68 6 -3.36 6 -2 6 C-2 5.01 -2 4.02 -2 3 C-3.32 3 -4.64 3 -6 3 Z " fill="#242424" transform="translate(267,90)"/>
<path d="M0 0 C0.66 0 1.32 0 2 0 C2.33 0.66 2.66 1.32 3 2 C3.66 1.34 4.32 0.68 5 0 C5.99 0 6.98 0 8 0 C7.608125 0.556875 7.21625 1.11375 6.8125 1.6875 C6.4103125 2.8321875 6.4103125 2.8321875 6 4 C7.33700035 6.58944746 7.33700035 6.58944746 9 9 C9 9.99 9 10.98 9 12 C6 11 6 11 4.9375 9 C4.628125 8.34 4.31875 7.68 4 7 C3.34 6.67 2.68 6.34 2 6 C2 7.65 2 9.3 2 11 C1.01 11.495 1.01 11.495 0 12 C0 8.04 0 4.08 0 0 Z " fill="#232323" transform="translate(253,68)"/>
<path d="M0 0 C0.02688151 1.64574566 0.04634123 3.29161413 0.0625 4.9375 C0.07410156 5.85402344 0.08570313 6.77054687 0.09765625 7.71484375 C0 10 0 10 -1 11 C-2.66617115 11.04063832 -4.33388095 11.042721 -6 11 C-7.83832664 7.89782379 -8.47446226 5.60591321 -8 2 C-4.77208445 -0.1519437 -3.71599191 -0.20086443 0 0 Z M-4 2 C-4.99 3.485 -4.99 3.485 -6 5 C-4.68 5.33 -3.36 5.66 -2 6 C-2.33 4.68 -2.66 3.36 -3 2 C-3.33 2 -3.66 2 -4 2 Z " fill="#232323" transform="translate(305,90)"/>
<path d="M0 0 C0.66 0 1.32 0 2 0 C2 3.63 2 7.26 2 11 C-1.70152678 11.92538169 -2.63458162 12.08174162 -6 11 C-6.6875 8.6875 -6.6875 8.6875 -7 6 C-5.8125 4.125 -5.8125 4.125 -4 3 C-1.8125 3.3125 -1.8125 3.3125 0 4 C0 2.68 0 1.36 0 0 Z M-3 5 C-3.99 6.485 -3.99 6.485 -5 8 C-3.515 8.99 -3.515 8.99 -2 10 C-1.34 9.01 -0.68 8.02 0 7 C-0.99 6.34 -1.98 5.68 -3 5 Z " fill="#262626" transform="translate(356,87)"/>
<path d="M0 0 C0.66 0 1.32 0 2 0 C2 1.98 2 3.96 2 6 C3.98 6 5.96 6 8 6 C8 4.02 8 2.04 8 0 C8.66 0 9.32 0 10 0 C10 3.63 10 7.26 10 11 C9.01 11.495 9.01 11.495 8 12 C8 10.68 8 9.36 8 8 C6.02 8 4.04 8 2 8 C2 9.32 2 10.64 2 12 C1.34 12 0.68 12 0 12 C0 8.04 0 4.08 0 0 Z " fill="#242424" transform="translate(333,87)"/>
<path d="M0 0 C0.66 0 1.32 0 2 0 C2.33 0.99 2.66 1.98 3 3 C4.98045559 3.66179847 4.98045559 3.66179847 7 4 C8 5 8 5 8.0625 7.5625 C8.041875 8.366875 8.02125 9.17125 8 10 C4.91190305 11.76462683 3.76687864 12 0 12 C0 8.04 0 4.08 0 0 Z M4 5 C3.01 6.485 3.01 6.485 2 8 C3.32 8.33 4.64 8.66 6 9 C5.67 7.68 5.34 6.36 5 5 C4.67 5 4.34 5 4 5 Z " fill="#222222" transform="translate(273,68)"/>
<path d="M0 0 C6.875 0.875 6.875 0.875 8 2 C8.04063832 3.66617115 8.042721 5.33388095 8 7 C7.195625 7.28875 6.39125 7.5775 5.5625 7.875 C2.8673532 8.73262568 2.8673532 8.73262568 2 11 C1.34 11 0.68 11 0 11 C0 7.37 0 3.74 0 0 Z M3 2 C2.67 3.32 2.34 4.64 2 6 C2.99 6 3.98 6 5 6 C5 5.01 5 4.02 5 3 C4.34 2.67 3.68 2.34 3 2 Z " fill="#252525" transform="translate(370,90)"/>
<path d="M0 0 C0.33 1.32 0.66 2.64 1 4 C0.01 4.33 -0.98 4.66 -2 5 C-1.01 5 -0.02 5 1 5 C1 5.66 1 6.32 1 7 C-1.3125 7.6875 -1.3125 7.6875 -4 8 C-5.875 6.875 -5.875 6.875 -7 5 C-6.8125 2.375 -6.8125 2.375 -6 0 C-3.50907189 -1.24546405 -2.58919267 -0.7767578 0 0 Z " fill="#222222" transform="translate(270,72)"/>
<path d="M0 0 C0 2.97 0 5.94 0 9 C-6.875 8.125 -6.875 8.125 -8 7 C-8.25 4.5625 -8.25 4.5625 -8 2 C-4.77208445 -0.1519437 -3.71599191 -0.20086443 0 0 Z M-4 2 C-4.99 3.485 -4.99 3.485 -6 5 C-4.68 5.33 -3.36 5.66 -2 6 C-2.33 4.68 -2.66 3.36 -3 2 C-3.33 2 -3.66 2 -4 2 Z " fill="#232323" transform="translate(315,90)"/>
<path d="M0 0 C0.94875 0.04125 1.8975 0.0825 2.875 0.125 C2.875 2.765 2.875 5.405 2.875 8.125 C0.5625 8.75 0.5625 8.75 -2.125 9.125 C-3.115 8.465 -4.105 7.805 -5.125 7.125 C-5.4375 4.625 -5.4375 4.625 -5.125 2.125 C-3.125 0.125 -3.125 0.125 0 0 Z M-2.125 2.125 C-2.455 3.445 -2.785 4.765 -3.125 6.125 C-2.135 6.125 -1.145 6.125 -0.125 6.125 C-0.125 5.135 -0.125 4.145 -0.125 3.125 C-0.785 2.795 -1.445 2.465 -2.125 2.125 Z " fill="#222222" transform="translate(349.125,70.875)"/>
<path d="M0 0 C0 2.97 0 5.94 0 9 C-6.875 8.125 -6.875 8.125 -8 7 C-8.25 4.5625 -8.25 4.5625 -8 2 C-4.77208445 -0.1519437 -3.71599191 -0.20086443 0 0 Z M-6 3 C-6 3.99 -6 4.98 -6 6 C-4.68 6 -3.36 6 -2 6 C-2 5.01 -2 4.02 -2 3 C-3.32 3 -4.64 3 -6 3 Z " fill="#282828" transform="translate(312,71)"/>
<path d="M0 0 C2.6875 0.875 2.6875 0.875 5 2 C5 2.99 5 3.98 5 5 C4.01 5.33 3.02 5.66 2 6 C2.66 6 3.32 6 4 6 C4 6.66 4 7.32 4 8 C2.1875 8.625 2.1875 8.625 0 9 C-0.99 8.34 -1.98 7.68 -3 7 C-3.375 4.5 -3.375 4.5 -3 2 C-2.01 1.34 -1.02 0.68 0 0 Z " fill="#232323" transform="translate(286,71)"/>
<path d="M0 0 C0.66 0 1.32 0 2 0 C2.33 1.65 2.66 3.3 3 5 C3.99 4.34 4.98 3.68 6 3 C6 3.99 6 4.98 6 6 C6.62599617 7.68236471 7.28752268 9.3523962 8 11 C4.125 10.125 4.125 10.125 3 9 C2.34 9.99 1.68 10.98 1 12 C0 11 0 11 -0.09765625 8.49609375 C-0.08605469 7.48675781 -0.07445312 6.47742188 -0.0625 5.4375 C-0.05347656 4.42558594 -0.04445313 3.41367188 -0.03515625 2.37109375 C-0.02355469 1.58863281 -0.01195312 0.80617188 0 0 Z " fill="#252525" transform="translate(269,87)"/>
<path d="M0 0 C0.33 0 0.66 0 1 0 C1.33 1.98 1.66 3.96 2 6 C2.33 6 2.66 6 3 6 C3.66 4.02 4.32 2.04 5 0 C5.66 0.33 6.32 0.66 7 1 C7 3.31 7 5.62 7 8 C4.39417629 8.93065133 3.35801776 9.14917407 0.75 8.0625 C0.1725 7.711875 -0.405 7.36125 -1 7 C-1.04254356 5.00045254 -1.04080783 2.99958364 -1 1 C-0.67 0.67 -0.34 0.34 0 0 Z " fill="#222222" transform="translate(329,71)"/>
<path d="M0 0 C1.2684375 0.12375 1.2684375 0.12375 2.5625 0.25 C4.7144437 3.47791555 4.76336443 4.53400809 4.5625 8.25 C3.9025 8.25 3.2425 8.25 2.5625 8.25 C1.9025 6.6 1.2425 4.95 0.5625 3.25 C-0.0975 5.23 -0.7575 7.21 -1.4375 9.25 C-2.0975 8.92 -2.7575 8.59 -3.4375 8.25 C-3.47991723 5.91705225 -3.47842937 3.58297433 -3.4375 1.25 C-2.4375 0.25 -2.4375 0.25 0 0 Z " fill="#212121" transform="translate(317.4375,70.75)"/>
<path d="M0 0 C2.31 0.33 4.62 0.66 7 1 C7 3.31 7 5.62 7 8 C6.34 8 5.68 8 5 8 C4.67 6.35 4.34 4.7 4 3 C3.67 3 3.34 3 3 3 C2.67 4.98 2.34 6.96 2 9 C1.34 9 0.68 9 0 9 C0 6.03 0 3.06 0 0 Z " fill="#1F1F1F" transform="translate(288,90)"/>
<path d="M0 0 C0.99 0.495 0.99 0.495 2 1 C2.625 3.5625 2.625 3.5625 3 6 C3.33 6 3.66 6 4 6 C4.33 4.02 4.66 2.04 5 0 C5.66 0 6.32 0 7 0 C7 2.64 7 5.28 7 8 C2.25 9.125 2.25 9.125 0 8 C0 5.36 0 2.72 0 0 Z " fill="#212121" transform="translate(279,90)"/>
<path d="M0 0 C2.31 0.33 4.62 0.66 7 1 C7 3.31 7 5.62 7 8 C6.34 8 5.68 8 5 8 C4.67 6.35 4.34 4.7 4 3 C3.67 3 3.34 3 3 3 C2.67 4.98 2.34 6.96 2 9 C1.34 9 0.68 9 0 9 C0 6.03 0 3.06 0 0 Z " fill="#1F1F1F" transform="translate(354,71)"/>
<path d="M0 0 C0.66 0 1.32 0 2 0 C2.33 1.98 2.66 3.96 3 6 C3.33 6 3.66 6 4 6 C4.66 4.02 5.32 2.04 6 0 C6.33 0 6.66 0 7 0 C7 2.97 7 5.94 7 9 C4.625 9.125 4.625 9.125 2 9 C0 7 0 7 -0.125 3.375 C-0.08375 2.26125 -0.0425 1.1475 0 0 Z " fill="#232323" transform="translate(360,90)"/>
<path d="M0 0 C2.31 0.33 4.62 0.66 7 1 C7 3.31 7 5.62 7 8 C6.34 8 5.68 8 5 8 C4.67 6.35 4.34 4.7 4 3 C3.67 3 3.34 3 3 3 C2.34 4.98 1.68 6.96 1 9 C0.67 9 0.34 9 0 9 C0 6.03 0 3.06 0 0 Z " fill="#232323" transform="translate(318,90)"/>
<path d="M0 0 C2.31 0.33 4.62 0.66 7 1 C7 3.31 7 5.62 7 8 C6.34 8 5.68 8 5 8 C4.67 6.35 4.34 4.7 4 3 C3.67 3 3.34 3 3 3 C2.34 4.98 1.68 6.96 1 9 C0.67 9 0.34 9 0 9 C0 6.03 0 3.06 0 0 Z " fill="#232323" transform="translate(250,90)"/>
<path d="M0 0 C0.66 0 1.32 0 2 0 C2 2.97 2 5.94 2 9 C3.65 9 5.3 9 7 9 C7 9.66 7 10.32 7 11 C4.69 11 2.38 11 0 11 C0 7.37 0 3.74 0 0 Z " fill="#252525" transform="translate(237,87)"/>
<path d="M0 0 C0.66 0 1.32 0 2 0 C2 0.66 2 1.32 2 2 C2.66 2 3.32 2 4 2 C4 2.66 4 3.32 4 4 C3.34 4 2.68 4 2 4 C2.66 6.31 3.32 8.62 4 11 C2.0625 10.4375 2.0625 10.4375 0 9 C-1.42682927 2.85365854 -1.42682927 2.85365854 0 0 Z " fill="#222222" transform="translate(338,69)"/>
<path d="M0 0 C0.66 0 1.32 0 2 0 C2 3.96 2 7.92 2 12 C0.68 12.33 -0.64 12.66 -2 13 C-2 12.34 -2 11.68 -2 11 C-1.34 11 -0.68 11 0 11 C0 7.37 0 3.74 0 0 Z " fill="#232323" transform="translate(324,69)"/>
<path d="M0 0 C2.475 0.495 2.475 0.495 5 1 C5 1.66 5 2.32 5 3 C4.01 3 3.02 3 2 3 C2 4.65 2 6.3 2 8 C1.01 8.495 1.01 8.495 0 9 C0 6.03 0 3.06 0 0 Z " fill="#212121" transform="translate(293,71)"/>
<path d="M0 0 C0.66 0 1.32 0 2 0 C2 3.96 2 7.92 2 12 C1.34 12 0.68 12 0 12 C0 8.04 0 4.08 0 0 Z " fill="#232323" transform="translate(300,68)"/>
<path d="M0 0 C0 2.97 0 5.94 0 9 C-1.32 8.34 -2.64 7.68 -4 7 C-3.34 5.68 -2.68 4.36 -2 3 C-2.99 2.67 -3.98 2.34 -5 2 C-1.125 0 -1.125 0 0 0 Z " fill="#1F1F1F" transform="translate(312,71)"/>
<path d="M0 0 C0.99 0 1.98 0 3 0 C3 3.3 3 6.6 3 10 C2.34 10 1.68 10 1 10 C0.67 6.7 0.34 3.4 0 0 Z " fill="#262626" transform="translate(345,88)"/>
<path d="M0 0 C0.99 0.33 1.98 0.66 3 1 C2.67 3.97 2.34 6.94 2 10 C1.34 10 0.68 10 0 10 C0 6.7 0 3.4 0 0 Z " fill="#252525" transform="translate(245,88)"/>
<path d="M0 0 C1.32 0.33 2.64 0.66 4 1 C4 3.31 4 5.62 4 8 C3.34 8 2.68 8 2 8 C1.34 5.36 0.68 2.72 0 0 Z " fill="#262626" transform="translate(291,90)"/>
<path d="M0 0 C1.32 0.33 2.64 0.66 4 1 C4 3.31 4 5.62 4 8 C3.34 8 2.68 8 2 8 C1.34 5.36 0.68 2.72 0 0 Z " fill="#262626" transform="translate(357,71)"/>
</svg>
