<?xml version="1.0" encoding="UTF-8"?>
<svg version="1.1" xmlns="http://www.w3.org/2000/svg" width="1000" height="1000">
<path d="M0 0 C8.44539854 3.66595393 14.09186439 10.4102857 17.75 18.6875 C25.59785164 39.22056756 25.95175893 61.816801 26.38442612 83.54215622 C26.4315089 85.86322846 26.48420695 88.18411779 26.5383606 90.5050354 C26.69184601 97.09336016 26.84192001 103.68171767 26.97412109 110.27050781 C27.32816489 127.71838413 27.88169098 145.09599769 29.42578125 162.484375 C29.48574657 163.16891125 29.5457119 163.85344749 29.60749435 164.55872726 C31.4746575 185.47083543 34.985049 206.16560177 42 226 C42.29245605 226.82935059 42.58491211 227.65870117 42.88623047 228.51318359 C48.76366726 244.83248268 56.47792124 259.91598915 68 273 C69.06154297 274.24136719 69.06154297 274.24136719 70.14453125 275.5078125 C79.22759494 285.91118141 89.14273102 294.01429874 101 301 C101.63260742 301.37656738 102.26521484 301.75313477 102.91699219 302.14111328 C165.07368312 338.60408946 250.47341641 328.96588917 319 322 C320.27022003 321.87238281 320.27022003 321.87238281 321.56610107 321.7421875 C368.39580037 317.02471249 414.58596558 309.73638439 460.85160828 301.17909241 C463.08349201 300.76636326 465.31543555 300.3539574 467.54743958 299.94187927 C472.88179043 298.95697526 478.21535311 297.96829013 483.54711914 296.96948242 C523.6430281 289.49786454 523.6430281 289.49786454 535 295 C537.625 296.875 537.625 296.875 539 299 C539.08904365 302.47270216 538.175738 303.79230963 535.9375 306.4375 C505.36720666 333.1052027 461.99899236 344.84303578 424 357 C422.89108398 357.35658691 421.78216797 357.71317383 420.63964844 358.08056641 C385.18060545 369.36298917 348.56059913 377.24545092 312 384 C311.27645325 384.13494873 310.55290649 384.26989746 309.80743408 384.40893555 C249.64949552 395.61470804 188.79543789 400.42787238 127.73731899 402.83967209 C106.1047995 403.69569939 84.53283845 404.66820461 63 407 C61.88362152 407.11894623 61.88362152 407.11894623 60.74468994 407.24029541 C-14.48664813 415.30535904 -92.33689373 433.00992973 -154 479 C-155.24330078 479.92232422 -155.24330078 479.92232422 -156.51171875 480.86328125 C-163.098832 485.86396932 -169.4520827 491.28587396 -175.16796875 497.26953125 C-177 499 -177 499 -179 499 C-179.26039063 499.5878125 -179.52078125 500.175625 -179.7890625 500.78125 C-181.07469483 503.13686021 -182.44554744 504.64637745 -184.375 506.5 C-185.25285156 507.35078125 -185.25285156 507.35078125 -186.1484375 508.21875 C-186.75945312 508.8065625 -187.37046875 509.394375 -188 510 C-189.33471877 511.33194645 -190.66822057 512.66511458 -192 514 C-192.23064685 503.89786505 -191.60018252 494.0838795 -190.375 484.0625 C-190.2876358 483.33410919 -190.20027161 482.60571838 -190.11026001 481.85525513 C-182.98223478 423.03968793 -163.41468902 371.31241031 -128.28515625 323.4921875 C-79.1939966 256.65030195 -53.83775967 190.80906726 -40.5 109.5 C-33.26858068 65.41613774 -33.26858068 65.41613774 -29.75 48.9453125 C-29.40805603 47.3443573 -29.40805603 47.3443573 -29.0592041 45.71105957 C-21.20881995 10.30621406 -21.20881995 10.30621406 -8 1 C-5.06699268 -0.46650366 -3.27962656 -0.36440295 0 0 Z " fill="#457D58" transform="translate(229,329)"/>
<path d="M0 0 C0.33 0 0.66 0 1 0 C1.21760173 9.70652524 0.66520761 18.99768516 -0.625 28.625 C-0.7123642 29.28619843 -0.79972839 29.94739685 -0.88973999 30.62863159 C-7.78112763 82.27977061 -26.74801123 124.67534609 -57.31640625 166.546875 C-97.02168344 220.96464103 -115.27955329 275.46314632 -126.01171875 341.26953125 C-138.07107901 415.17132205 -138.07107901 415.17132205 -150 427 C-153.14272288 429.09514859 -155.06331856 429.54478441 -158.8125 429.44140625 C-164.23384512 428.34745625 -168.38239163 424.06648809 -171.75 419.875 C-176.75087464 412.08840324 -178.33155565 403.12813361 -179.6875 394.125 C-179.86659912 392.97040283 -179.86659912 392.97040283 -180.04931641 391.79248047 C-182.30371377 375.27437071 -182.10889261 358.35072009 -182.38760376 341.70864868 C-183.33324847 288.00470506 -186.01184022 231.98467121 -225.46484375 191.46875 C-231.66780489 185.59755177 -238.54666385 181.1254104 -246 177 C-246.61117676 176.66081543 -247.22235352 176.32163086 -247.85205078 175.97216797 C-277.497912 159.78301603 -310.31015502 156.57719576 -343.5625 156.6875 C-344.70872833 156.68932281 -345.85495667 156.69114563 -347.03591919 156.69302368 C-419.91926979 156.88578196 -491.20394144 167.85432926 -562.64146423 181.27507019 C-584.47114333 185.3594307 -584.47114333 185.3594307 -593.875 185.375 C-594.67679688 185.39949219 -595.47859375 185.42398438 -596.3046875 185.44921875 C-601.64013311 185.47554496 -604.86538252 184.69393725 -609 181 C-610.0234375 178.9765625 -610.0234375 178.9765625 -610 177 C-601.38051109 158.55268261 -563.28837912 148.1753897 -546.05859375 141.8828125 C-494.50398828 123.23654671 -441.17819663 111.04704517 -387 103 C-385.83388184 102.8237207 -384.66776367 102.64744141 -383.46630859 102.46582031 C-344.35841921 96.62620551 -304.94801702 94.42988502 -265.48709393 92.59431553 C-249.19661752 91.8352581 -232.93875996 90.95097323 -216.69140625 89.5234375 C-216.013715 89.46480467 -215.33602375 89.40617184 -214.6377964 89.34576225 C-139.699217 82.78367641 -57.08089991 61.89138187 -4 5 C-3.25878906 4.06929687 -2.51757812 3.13859375 -1.75390625 2.1796875 C-1.17511719 1.46039063 -0.59632813 0.74109375 0 0 Z " fill="#0A9AA8" transform="translate(962,157)"/>
<path d="M0 0 C0.515625 0.495 1.03125 0.99 1.5625 1.5 C1.29374061 13.59417251 -8.70035983 22.36183438 -16.875 30.203125 C-21.52821138 34.5623969 -26.41931518 38.57037527 -31.4375 42.5 C-32.15164063 43.10457031 -32.86578125 43.70914063 -33.6015625 44.33203125 C-50.92914482 58.8737302 -71.44666731 71.45562564 -91.8359375 81.25390625 C-95.50660736 83.0209264 -99.11739382 84.88797668 -102.7265625 86.77734375 C-103.85255859 87.3595166 -104.97855469 87.94168945 -106.13867188 88.54150391 C-108.35728525 89.68909528 -110.56997654 90.84823866 -112.77539062 92.02099609 C-126.05111036 98.82040585 -140.32400133 100.22416464 -154.9375 101.9375 C-155.81724487 102.04227661 -156.69698975 102.14705322 -157.60339355 102.25500488 C-173.93129591 104.1812693 -190.29198847 105.54708391 -206.6875 106.75 C-207.81196533 106.83281219 -208.93643066 106.91562439 -210.0949707 107.00094604 C-232.81028427 108.6548991 -255.44348943 109.70233005 -278.22241211 109.74023438 C-281.73640431 109.74996236 -285.24981496 109.78114596 -288.76367188 109.8125 C-322.65196149 109.9691355 -357.10801294 105.47692076 -387.4375 89.5 C-387.4375 89.17 -387.4375 88.84 -387.4375 88.5 C-382.05128515 88.3883043 -376.74106694 88.51993747 -371.37109375 88.96484375 C-361.79885527 89.67015999 -352.2190177 89.90606085 -342.625 90.125 C-341.19778122 90.15768982 -341.19778122 90.15768982 -339.74172974 90.19104004 C-324.93403223 90.51618676 -310.21657571 90.66070064 -295.4375 89.5 C-294.47972656 89.4282959 -293.52195312 89.3565918 -292.53515625 89.28271484 C-250.68474546 85.90745997 -208.77634749 74.56423111 -168.95605469 61.63720703 C-165.45872401 60.50685966 -161.95290904 59.40661122 -158.4453125 58.30859375 C-122.32171934 46.82202789 -86.8128637 31.79020801 -52.6472168 15.39331055 C-8.83630457 -5.43772589 -8.83630457 -5.43772589 0 0 Z " fill="#97B690" transform="translate(733.4375,535.5)"/>
<path d="M0 0 C3 2 3 2 3.5625 4.5 C2.36625926 11.94327572 -2.88970422 18.6057989 -8 24 C-8.66 24 -9.32 24 -10 24 C-10 24.66 -10 25.32 -10 26 C-10.66 26 -11.32 26 -12 26 C-12.20109375 26.54527344 -12.4021875 27.09054687 -12.609375 27.65234375 C-14.56549064 30.95466256 -17.33417039 33.13887156 -20.25 35.5625 C-20.87479248 36.0884375 -21.49958496 36.614375 -22.14331055 37.15625 C-33.34550352 46.53051709 -44.87262486 55.39496012 -56.95654297 63.60839844 C-58.24822286 64.48803708 -59.53449577 65.37571612 -60.81298828 66.27441406 C-72.48470941 74.42178504 -85.41497953 78.14344657 -99 82 C-100.13856445 82.3285498 -101.27712891 82.65709961 -102.45019531 82.99560547 C-117.86222768 87.40734818 -133.38118126 91.07298647 -149.0625 94.375 C-149.86497162 94.54435059 -150.66744324 94.71370117 -151.49423218 94.88818359 C-171.66700886 99.12149954 -191.1313706 101.15974431 -211.734375 101.16796875 C-213.65838646 101.17119433 -215.5823977 101.1745593 -217.50640869 101.17805481 C-221.53748133 101.18402042 -225.56853264 101.18589785 -229.59960938 101.18530273 C-233.66410847 101.18522218 -237.72849316 101.19205305 -241.79296875 101.20581055 C-261.44732617 101.27127243 -281.07805701 101.30736799 -300.703125 100.11328125 C-301.37768486 100.07433432 -302.05224472 100.03538738 -302.74724579 99.99526024 C-313.4687195 99.354187 -313.4687195 99.354187 -317 97 C-315.91960449 96.86537354 -315.91960449 96.86537354 -314.81738281 96.72802734 C-239.01564692 87.18447232 -165.67333333 68.06649825 -95.97119141 36.33984375 C-92.81888907 34.91832894 -89.65244039 33.53328811 -86.48046875 32.15625 C-73.10656486 26.36408708 -73.10656486 26.36408708 -60 20 C-16.12221704 -2.50263173 -16.12221704 -2.50263173 0 0 Z " fill="#97B690" transform="translate(639,512)"/>
<path d="M0 0 C0 0.33 0 0.66 0 1 C-5.67539702 1.11250787 -11.31070438 1.01121605 -16.97698975 0.65142822 C-78.11750341 -3.22650233 -135.20960052 7.55697308 -193 27 C-195.16925789 27.71618505 -197.33852856 28.43233138 -199.5078125 29.1484375 C-227.06983612 38.35876796 -253.59094242 50.25977964 -280.06640625 62.1796875 C-313.32329406 77.12894903 -313.32329406 77.12894903 -323 76 C-325 74 -325 74 -325.5 71.4375 C-324.317979 63.31110565 -317.75918261 57.40266178 -312 52 C-310.8553125 50.824375 -310.8553125 50.824375 -309.6875 49.625 C-288.28025364 28.71559658 -261.8677328 13.77340634 -235.19311523 0.58764648 C-233.09413767 -0.45598461 -231.01180649 -1.53391712 -228.94946289 -2.64819336 C-219.64878518 -7.4277388 -210.68546308 -8.60575285 -200.4375 -9.6875 C-198.65889047 -9.88992382 -196.88040915 -10.09347709 -195.10205078 -10.2980957 C-189.73851285 -10.90440633 -184.3704606 -11.45891889 -179 -12 C-177.82809113 -12.11988281 -177.82809113 -12.11988281 -176.63250732 -12.2421875 C-49.43563007 -25.20247808 -49.43563007 -25.20247808 0 0 Z " fill="#38682B" transform="translate(705,339)"/>
<path d="M0 0 C1.4946648 -0.00322996 2.98932932 -0.00659518 4.48399353 -0.01008606 C7.61816127 -0.01604808 10.75230161 -0.01792976 13.88647461 -0.01733398 C17.02260249 -0.01725389 20.15858067 -0.0240107 23.29467773 -0.0378418 C45.46833888 -0.13428453 67.47083009 0.59194792 89.58984375 2.16796875 C89.58984375 2.82796875 89.58984375 3.48796875 89.58984375 4.16796875 C88.57486816 4.29324951 87.55989258 4.41853027 86.51416016 4.54760742 C28.4079259 11.76340865 -26.22725731 26.01756235 -80.41015625 48.16796875 C-81.37943054 48.56332825 -81.37943054 48.56332825 -82.36828613 48.9666748 C-93.89731591 53.675008 -105.34254636 58.45282176 -116.41796875 64.15625 C-130.06809204 71.11535541 -144.13456652 78.05561108 -158.66015625 82.98046875 C-159.34303711 83.21644775 -160.02591797 83.45242676 -160.72949219 83.69555664 C-165.47139855 85.1986672 -169.49630144 85.47639155 -174.41015625 85.16796875 C-176.91015625 83.66796875 -176.91015625 83.66796875 -178.41015625 82.16796875 C-177.98305589 76.90830695 -176.03483394 73.72186269 -172.78515625 69.73046875 C-172.33003662 69.15844727 -171.87491699 68.58642578 -171.40600586 67.99707031 C-164.93064078 59.96089412 -157.51801194 53.53444233 -149.41015625 47.16796875 C-148.84184082 46.7179248 -148.27352539 46.26788086 -147.68798828 45.80419922 C-143.01975494 42.12845476 -138.2523869 38.61077703 -133.41015625 35.16796875 C-132.25410889 34.33845703 -132.25410889 34.33845703 -131.07470703 33.4921875 C-116.71317482 23.36900903 -102.34575361 18.42843697 -85.41015625 14.16796875 C-83.12435415 13.56102087 -80.83919291 12.95165419 -78.5546875 12.33984375 C-66.07276649 9.05289066 -53.51206961 6.26671886 -40.84765625 3.79296875 C-39.56987305 3.54208496 -38.29208984 3.29120117 -36.97558594 3.03271484 C-24.58864345 0.68335422 -12.59878401 0.00653194 0 0 Z " fill="#38682B" transform="translate(635.41015625,348.83203125)"/>
<path d="M0 0 C0.66 0 1.32 0 2 0 C13.25694272 19.76218833 22.45437253 41.31879047 16.375 64.375 C11.12650931 80.50450796 -0.00706209 92.31285781 -15 100 C-19.45961635 102.0398016 -23.97354359 103.94318677 -28.54003906 105.73071289 C-37.62151104 109.36381787 -46.75345533 115.02911729 -51.03515625 124.22265625 C-51.75635857 126.12461771 -52.38746666 128.06031108 -53 130 C-53.33 130 -53.66 130 -54 130 C-54.69992661 103.63609786 -38.27527523 83.2199509 -21.74023438 64.45751953 C-12.23194399 53.98876128 -12.23194399 53.98876128 -5 42 C-5.49886719 42.57105469 -5.99773437 43.14210937 -6.51171875 43.73046875 C-11.06298266 48.87004685 -15.74507857 53.79912833 -20.625 58.625 C-25.29249933 63.25715969 -29.84661414 67.89245793 -34 73 C-34.77859375 73.95132813 -35.5571875 74.90265625 -36.359375 75.8828125 C-42.45089246 83.48119741 -47.39831694 91.42647318 -52 100 C-52.66 99.67 -53.32 99.34 -54 99 C-58.16854942 84.82178563 -56.48714543 67.83328541 -50.375 54.4375 C-44.97008414 44.81858194 -36.68533546 40.04602648 -27.38623047 34.71704102 C-16.82153234 28.65756704 -5.45601178 21.96087373 -1 10 C-0.48972745 6.6732231 -0.19252177 3.35917289 0 0 Z " fill="#457D58" transform="translate(281,195)"/>
<path d="M0 0 C0.66 0.33 1.32 0.66 2 1 C2.12375 2.7634375 2.12375 2.7634375 2.25 4.5625 C2.9333034 10.83544929 6.38844429 14.85513023 11.1640625 18.77734375 C15.83762763 22.13409004 20.75132552 25.04964284 25.6875 28 C36.55091714 34.68419666 40.59608118 40.58465127 43.75 52.9375 C44.40400005 60.94900066 44.37390069 68.28482274 42 76 C39.22420051 74.61210025 38.81333644 72.89235193 37.4375 70.125 C32.68000321 61.20035274 26.14907632 53.91814274 18.91796875 46.91796875 C16.29946884 44.29946884 13.92143064 41.5001382 11.54296875 38.6640625 C9.90611667 36.76915089 9.90611667 36.76915089 7 35 C8.09054688 36.25490234 8.09054688 36.25490234 9.203125 37.53515625 C12.49343907 41.335922 15.75365157 45.16163768 19 49 C19.53367188 49.63019043 20.06734375 50.26038086 20.6171875 50.90966797 C32.28083448 64.78200929 43.08992142 79.02729379 42 98 C40 95 40 95 38.4375 91.6875 C34.00987526 83.93383626 24.28909173 80.58775849 16.5 77.125 C4.64286867 71.63392692 -3.12295653 65.94245371 -9 54 C-9.51046875 52.99066406 -9.51046875 52.99066406 -10.03125 51.9609375 C-14.69809604 40.76914931 -12.67239858 27.58235741 -8.578125 16.60546875 C-6.06419985 10.86202094 -3.16653963 5.41140634 0 0 Z " fill="#86BC41" transform="translate(178,203)"/>
<path d="M0 0 C2.73160199 4.09740298 2.59089407 7.1940616 2 12 C-1.29808417 24.5377551 -15.56464463 35.28297298 -26 42 C-30.48161632 44.32392345 -35.06693546 46.10210896 -39.8125 47.8125 C-41.14871571 48.30898496 -42.48464416 48.80624357 -43.8203125 49.30419922 C-48.19648049 50.91894217 -52.59449537 52.46737073 -57 54 C-57.7711615 54.26895081 -58.542323 54.53790161 -59.33685303 54.81500244 C-78.96585994 61.63617959 -98.74832166 67.69791999 -118.875 72.875 C-119.7311792 73.09649719 -120.5873584 73.31799438 -121.46948242 73.54620361 C-123.87052638 74.16309169 -126.27415281 74.76807756 -128.6796875 75.3671875 C-129.7532399 75.64106293 -129.7532399 75.64106293 -130.84848022 75.92047119 C-135.76661256 77.11669372 -135.76661256 77.11669372 -138 76 C-135.16828654 74.49692798 -132.33455559 72.9977051 -129.5 71.5 C-128.19712036 70.81115723 -128.19712036 70.81115723 -126.86791992 70.10839844 C-122.32989424 67.71878396 -117.77736041 65.38141363 -113.16088867 63.14746094 C-91.11164629 52.44173976 -70.50886243 38.8535482 -50 25.5 C-46.66777631 23.33162113 -43.33437923 21.16506268 -40 19 C-39.1740332 18.4627832 -38.34806641 17.92556641 -37.49707031 17.37207031 C-9.14215827 -1.01579536 -9.14215827 -1.01579536 0 0 Z " fill="#97B690" transform="translate(539,508)"/>
<path d="M0 0 C0.66 0 1.32 0 2 0 C2.4846875 1.02738281 2.969375 2.05476562 3.46875 3.11328125 C7.1503943 10.77325234 10.97732195 17.69165774 16.171875 24.4609375 C22.65217775 33.46135798 25.06794733 41.96873227 24 53 C21.98596984 60.21121041 18.3498596 64.16722615 11.98828125 67.94140625 C6.11613101 71.06783595 -1.05546778 71.15205386 -7.4609375 69.28125 C-13.67287513 66.32998461 -18.40390526 61.76614049 -21.2578125 55.48046875 C-23.73771498 47.19237363 -22.73652639 39.59899966 -19.0625 31.875 C-15.88957952 26.12126591 -12.14325319 21.00407019 -8.0859375 15.83203125 C-4.50726799 10.97335073 -1.90516404 5.71549213 0 0 Z " fill="#0B9AA8" transform="translate(801,605)"/>
<path d="M0 0 C-3.74046515 3.18485229 -8.0051044 4.93257266 -12.4375 6.9375 C-35.11070649 17.47049869 -56.21260356 31.21875045 -77.05883789 44.93969727 C-84.59630157 49.89939467 -92.1292296 54.84881838 -99.9375 59.375 C-100.54529297 59.73835449 -101.15308594 60.10170898 -101.77929688 60.47607422 C-106.25357675 62.99691849 -109.93978248 63.7960888 -115 64 C-117.33760576 61.66239424 -117.34295127 61.06741017 -117.4375 57.875 C-117.24205061 49.17750208 -110.46754227 42.52523849 -104.65234375 36.61328125 C-82.5794294 17.90688334 -45.974431 10.80672223 -18.375 3.375 C-16.47161865 2.86030151 -16.47161865 2.86030151 -14.52978516 2.33520508 C-12.76320557 1.87150513 -12.76320557 1.87150513 -10.9609375 1.3984375 C-9.92759277 1.12692871 -8.89424805 0.85541992 -7.82958984 0.57568359 C-5.12881408 0.02620738 -2.74606721 -0.11281754 0 0 Z " fill="#38682B" transform="translate(659,373)"/>
<path d="M0 0 C2 1 2 1 3.1015625 3.1640625 C5.02974555 9.25041421 5.41849116 17.19154512 2.4375 23 C-0.48822109 26.60088749 -2.98820172 28.66586282 -7 31 C-7.99 30.67 -8.98 30.34 -10 30 C-9.54109375 29.68289063 -9.0821875 29.36578125 -8.609375 29.0390625 C-3.18734879 24.91558879 -0.6501558 20.60062319 1 14 C1.52931232 9.22106588 1.20374617 4.6645164 0 0 Z " fill="#E7F5F6" transform="translate(817,639)"/>
<path d="M0 0 C0.33 0.66 0.66 1.32 1 2 C-1.57784846 4.64752004 -3.91648098 6.94432065 -7 9 C-7.99 8.67 -8.98 8.34 -10 8 C-6.7 5.36 -3.4 2.72 0 0 Z " fill="#DDF1F3" transform="translate(817,661)"/>
</svg>
